<?xml version="1.0" encoding="utf-8"?>
<!-- Generator: Adobe Illustrator 17.0.0, SVG Export Plug-In . SVG Version: 6.00 Build 0)  -->
<!DOCTYPE svg PUBLIC "-//W3C//DTD SVG 1.1//EN" "http://www.w3.org/Graphics/SVG/1.1/DTD/svg11.dtd">
<svg version="1.1" id="Ebene_1" xmlns="http://www.w3.org/2000/svg" xmlns:xlink="http://www.w3.org/1999/xlink" x="0px" y="0px"
	 width="100px" height="100px" viewBox="0 0 100 100" enable-background="new 0 0 100 100" xml:space="preserve">
<g>
	<g>
		<path fill="#28323E" d="M55.505,83.389v-4.881v-3.601l3.312-1.413l1.799-0.768l-0.737-1.795L58.5,67.575l2.567-2.567l2.025-2.025
			c-2.758-1.043-4.883-1.668-6.351-1.859c-1.106-0.237-1.856-2.409-2.251-6.515c4.58-5.765,7.226-10.819,7.937-15.162
			c1.974,0,3.356-1.678,4.146-5.034c0.79-3.356,0.237-5.864-1.658-7.522c0-0.869,0.138-2.744,0.415-5.627
			c0.276-2.882-0.04-5.903-0.948-9.062c-0.908-3.159-2.764-5.982-5.568-8.47C56.01,1.244,51.568,0,45.487,0
			S34.964,1.244,32.161,3.731c-2.803,2.488-4.659,5.311-5.568,8.47c-0.908,3.159-1.224,6.18-0.948,9.062
			c0.276,2.882,0.415,4.758,0.415,5.627c-1.895,1.658-2.448,4.166-1.658,7.522c0.79,3.356,2.172,5.034,4.146,5.034
			c0.711,4.343,3.356,9.398,7.937,15.162c-0.395,4.107-1.145,6.278-2.251,6.515c-1.816,0.237-4.62,1.125-8.41,2.665
			c-3.791,1.54-7.601,3.475-11.431,5.804c-3.83,2.33-7.186,4.995-10.069,7.996C1.441,80.59,0,83.709,0,86.947h55.505V83.389z"/>
	</g>
	<g>
		<path fill="#28323E" d="M100,82.88l-5.834,2.478c-0.076,0.229-0.159,0.458-0.248,0.686s-0.184,0.445-0.286,0.648l2.402,5.834
			l-3.47,3.47l-5.834-2.364c-0.229,0.102-0.458,0.203-0.686,0.305s-0.458,0.191-0.686,0.267L82.956,100h-4.88l-2.478-5.757
			c-0.229-0.102-0.464-0.197-0.705-0.286s-0.477-0.184-0.705-0.286l-5.757,2.364l-3.47-3.432l2.326-5.796
			c-0.102-0.229-0.203-0.464-0.305-0.705c-0.102-0.241-0.191-0.489-0.267-0.744l-5.757-2.402v-4.88l5.719-2.44
			c0.102-0.254,0.203-0.502,0.305-0.744s0.203-0.477,0.305-0.705l-2.364-5.757l3.432-3.432l5.834,2.326
			c0.229-0.127,0.458-0.235,0.686-0.324s0.47-0.172,0.724-0.248L78,60.956h4.88l2.478,5.796c0.229,0.076,0.458,0.165,0.686,0.267
			s0.458,0.203,0.686,0.305l5.796-2.402l3.47,3.47l-2.364,5.834c0.102,0.229,0.197,0.451,0.286,0.667s0.172,0.438,0.248,0.667
			L100,78V82.88z M80.44,87.799c2.008,0,3.73-0.712,5.166-2.135s2.154-3.152,2.154-5.186c0-2.008-0.718-3.73-2.154-5.166
			s-3.158-2.154-5.166-2.154c-2.008,0-3.73,0.718-5.166,2.154s-2.154,3.158-2.154,5.166c0,2.034,0.718,3.762,2.154,5.186
			S78.432,87.799,80.44,87.799z"/>
	</g>
</g>
</svg>
