<?xml version="1.0" encoding="utf-8"?>
<!-- Generator: Adobe Illustrator 17.0.0, SVG Export Plug-In . SVG Version: 6.00 Build 0)  -->
<!DOCTYPE svg PUBLIC "-//W3C//DTD SVG 1.1//EN" "http://www.w3.org/Graphics/SVG/1.1/DTD/svg11.dtd">
<svg version="1.1" id="Ebene_1" xmlns="http://www.w3.org/2000/svg" xmlns:xlink="http://www.w3.org/1999/xlink" x="0px" y="0px"
	 width="100px" height="100px" viewBox="0 0 100 100" enable-background="new 0 0 100 100" xml:space="preserve">
<path fill="#28323E" d="M88,0H12C5.373,0,0,5.915,0,13.211v53.577C0,74.085,5.373,80,12,80h68l20,20V66.788V50V13.211
	C100,5.915,94.627,0,88,0z M57.533,64.605c0,0.55-0.172,0.997-0.516,1.341c-0.413,0.413-0.86,0.619-1.341,0.619H44.325
	c-0.482,0-0.929-0.206-1.341-0.619c-0.344-0.344-0.516-0.791-0.516-1.341V53.358c0-0.55,0.172-0.997,0.516-1.341
	c0.413-0.413,0.86-0.619,1.341-0.619h11.351c0.482,0,0.929,0.206,1.341,0.619c0.344,0.344,0.516,0.791,0.516,1.341V64.605z
	 M57.43,42.523c-0.069,0.413-0.275,0.757-0.619,1.032c-0.344,0.206-0.791,0.31-1.341,0.31H44.531c-0.55,0-1.032-0.103-1.445-0.31
	c-0.413-0.275-0.619-0.619-0.619-1.032L41.538,15.59c0-0.55,0.172-0.963,0.516-1.238c0.55-0.413,1.032-0.619,1.445-0.619h13.002
	c0.413,0,0.894,0.206,1.445,0.619c0.344,0.275,0.516,0.654,0.516,1.135L57.43,42.523z"/>
</svg>
